<?xml version="1.0" standalone="no"?>
<!DOCTYPE svg PUBLIC "-//W3C//DTD SVG 20010904//EN"
 "http://www.w3.org/TR/2001/REC-SVG-20010904/DTD/svg10.dtd">
<svg version="1.0" xmlns="http://www.w3.org/2000/svg"
 width="600.000000pt" height="270.000000pt" viewBox="0 0 600.000000 270.000000"
 preserveAspectRatio="xMidYMid meet">
<metadata>
Created by potrace 1.16, written by Peter Selinger 2001-2019
</metadata>
<g transform="translate(0.000000,270.000000) scale(0.100000,-0.100000)"
fill="#000000" stroke="none">
<path d="M1972 2498 c-7 -7 -12 -31 -12 -54 0 -57 -8 -74 -35 -74 -12 0 -30
-9 -39 -19 -17 -18 -17 -20 1 -38 11 -11 29 -26 42 -35 20 -14 23 -27 28 -117
5 -84 9 -101 22 -101 30 0 61 12 61 24 0 6 14 23 32 38 l33 27 -27 1 c-52 0
-58 18 -58 176 0 165 -12 208 -48 172z"/>
<path d="M501 2101 c-18 -22 -47 -45 -67 -51 -32 -11 -52 -38 -92 -121 -2 -4
11 -11 27 -17 35 -12 47 -2 57 47 6 26 16 37 57 57 32 15 68 24 99 24 63 0 78
-22 85 -129 l6 -80 -69 -33 c-46 -22 -76 -44 -91 -66 -30 -46 -61 -130 -68
-189 -6 -46 -5 -50 39 -101 45 -53 46 -55 46 -124 0 -55 -126 -856 -155 -985
-5 -20 -1 -23 27 -23 l33 0 110 335 110 334 52 1 c40 0 55 -4 62 -18 26 -48
80 -314 86 -423 4 -64 12 -145 19 -180 l11 -64 48 -3 48 -3 -6 153 c-4 84 -11
185 -17 223 -6 39 -14 117 -18 175 -5 58 -22 173 -39 255 -34 167 -41 294 -16
315 9 7 36 11 68 8 l55 -3 15 43 16 42 -44 0 -45 0 0 49 c0 55 -38 150 -78
193 -13 15 -49 37 -79 49 l-54 22 4 71 c3 39 11 94 20 121 l15 50 -30 32 c-31
32 -56 40 -159 49 -56 6 -56 5 -88 -35z m309 -456 l0 -55 -95 0 -95 0 0 55 0
55 95 0 95 0 0 -55z"/>
<path d="M5002 1873 c-12 -8 -39 -38 -60 -67 l-37 -51 0 -162 c0 -161 0 -162
20 -143 11 10 29 20 40 22 12 2 22 14 25 28 3 14 20 53 38 87 39 75 64 178 56
224 -6 31 -39 80 -53 78 -3 0 -16 -7 -29 -16z"/>
<path d="M4293 1768 c-32 -36 -34 -54 -13 -121 11 -34 20 -71 20 -81 0 -11 11
-31 24 -45 47 -49 77 -126 88 -224 17 -161 16 -157 43 -157 41 0 55 -11 55
-41 0 -35 27 -40 55 -9 10 11 28 20 41 20 21 0 23 5 26 63 3 58 4 62 29 65 25
3 26 4 18 54 -20 126 -70 229 -168 345 -34 40 -61 82 -61 93 0 11 -6 20 -13
20 -7 0 -30 9 -52 20 -50 26 -67 25 -92 -2z"/>
<path d="M1722 1443 c-31 -12 -37 -50 -42 -253 l-5 -205 -51 -5 -50 -5 104
-285 c69 -186 107 -304 110 -339 l4 -53 28 31 29 31 190 0 191 0 0 60 0 60
110 0 110 0 0 -60 0 -60 60 0 60 0 0 60 0 60 110 0 110 0 0 -61 0 -61 450 3
c248 2 450 1 450 -3 0 -5 172 -8 383 -8 210 0 387 -4 392 -8 6 -4 41 -49 79
-100 l69 -93 126 5 c69 3 157 8 195 11 44 5 72 3 79 -4 8 -8 142 -11 432 -11
396 0 423 1 438 18 22 24 21 35 -1 55 -25 23 -158 24 -189 2 -17 -12 -73 -15
-308 -17 -263 -3 -287 -2 -299 15 -8 10 -26 17 -44 17 -60 0 -62 9 -62 244 l0
213 -140 8 -140 7 0 63 0 63 -82 4 c-46 3 -91 8 -100 12 -13 6 -23 -4 -48 -53
l-30 -61 -50 0 c-28 0 -80 6 -115 12 l-65 13 0 51 c0 28 7 68 15 87 18 42 10
93 -14 100 -10 2 -42 49 -71 103 -85 160 -140 235 -140 192 0 -7 -16 -72 -37
-145 l-36 -133 -59 0 c-32 0 -58 4 -58 10 0 6 -33 10 -77 10 -43 0 -88 3 -101
6 -13 4 -57 53 -108 121 -47 63 -92 117 -100 120 -24 9 -64 87 -64 126 l0 37
-432 0 -433 0 3 -170 c3 -123 0 -175 -8 -185 -9 -11 -34 -15 -86 -15 -71 0
-74 1 -80 26 -4 14 -4 55 -1 90 l5 64 -33 0 c-39 0 -49 -9 -106 -90 l-42 -60
-66 0 c-63 0 -68 2 -84 29 -9 16 -17 50 -17 76 0 42 5 52 51 103 74 83 75 87
35 111 -30 19 -48 21 -182 20 -82 0 -155 -3 -162 -6z m184 -179 c21 -22 34
-46 34 -62 1 -36 33 -106 58 -123 17 -12 20 -28 23 -111 4 -110 22 -146 77
-163 30 -9 32 -12 32 -58 0 -72 -21 -86 -130 -87 -92 0 -110 8 -110 48 0 13
-9 37 -20 52 -36 51 -92 180 -106 243 -14 64 -19 279 -7 290 3 4 31 7 61 7 50
0 58 -3 88 -36z m856 -281 c9 -10 25 -36 35 -57 l20 -39 65 2 64 2 12 -39 c7
-22 12 -63 12 -92 0 -61 -16 -79 -67 -80 -26 0 -33 -4 -33 -19 0 -32 -24 -42
-92 -39 l-63 3 -5 60 c-6 64 -58 181 -85 192 -11 4 -15 22 -15 64 l0 59 68 0
c53 0 72 -4 84 -17z m1197 -20 c23 -6 23 -8 19 -91 -3 -63 -9 -88 -21 -97 -11
-8 -17 -31 -19 -76 l-3 -64 -45 -23 c-39 -20 -56 -23 -132 -20 -113 5 -120 11
-116 102 l3 71 53 3 52 3 0 37 c0 21 6 46 13 57 7 11 19 39 26 63 l12 42 67 0
c37 0 78 -3 91 -7z"/>
</g>
</svg>
